<svg width="178" height="42" viewBox="0 0 178 42" fill="none" xmlns="http://www.w3.org/2000/svg">
<g clip-path="url(#clip0_5158_9942)">
<path d="M173.637 41.9991H7.66992L9.23027 38.0586H175.224L173.637 41.9991Z" fill="white"/>
<path d="M170.569 31.5794C169.802 31.5794 170.066 30.7066 170.066 30.7066L172.578 24.8138H165.226L163.878 27.961H167.633L166.073 31.5842H149.863C149.043 31.6106 149.229 30.9494 149.229 30.9494L151.467 24.8138H147.986L145.526 31.4519C145.446 31.6334 145.302 31.7793 145.122 31.8621C144.942 31.9449 144.737 31.9589 144.547 31.9015C143.913 31.7116 144.254 30.8244 144.254 30.8244L146.264 24.8138H142.776L140.501 31.5842H126.352C127.251 28.3841 124.686 27.1147 124.686 27.1147C133.387 18.6734 126.246 12.0714 126.246 12.0714L117.945 31.5866H102.05C100.569 31.5866 101.045 30.8196 101.329 30.5816C102.572 29.4444 107.703 24.8114 107.703 24.8114H103.24L98.5857 28.752L104.139 15.7162H99.8119L93.8253 31.5457H76.373C76.2331 31.5478 76.0963 31.5054 75.9822 31.4246C75.868 31.3438 75.7826 31.2287 75.7382 31.0961C75.6361 30.781 75.5975 30.4487 75.6247 30.1185C75.652 29.7883 75.7445 29.4669 75.8969 29.1727C76.4523 28.0355 77.6159 27.4898 78.5416 27.9297C78.8002 28.0653 79.019 28.2658 79.1767 28.5116C79.3343 28.7573 79.4253 29.0398 79.4408 29.3314H82.3259C82.3523 27.408 81.506 25.6553 79.9456 24.8884C77.5919 23.7512 74.5505 25.1793 73.1489 28.1149C72.6208 29.1803 72.3836 30.3663 72.4613 31.5529H60.2141C61.2191 28.7231 60.3463 25.8404 58.0719 24.8355C55.6677 23.8041 52.6239 25.3163 51.3401 28.2735C50.8765 29.3002 50.656 30.4199 50.6957 31.5457H39.0592C37.0228 31.4135 37.684 29.3819 37.684 29.3819L44.9833 12.3815H39.6146L34.2459 25.6818C32.5269 29.1992 30.9666 30.1512 30.6396 30.2835C27.9949 31.3413 28.4974 28.1197 28.4974 28.1197C42.3386 14.2064 33.241 0.771484 33.241 0.771484L23.6409 27.3744C10.0762 33.2455 3.57029 25.451 3.57029 25.451L0 32.6108C12.139 39.7778 23.0061 31.9761 23.0061 31.9761C23.8789 34.5943 25.069 35.7315 26.3384 36.0224C30.0674 36.71 32.712 32.743 32.712 32.743C33.5319 35.2554 35.6476 35.4935 35.9385 35.4935H47.0725C49.8759 35.4935 51.1189 33.748 51.1718 33.748C51.5643 34.5505 52.2288 35.1877 53.0471 35.5463C54.9248 36.3662 57.2785 35.5728 58.8389 33.7744C59.4207 35.4141 60.8488 35.4935 60.8488 35.4935H69.682C71.3217 35.4935 72.882 33.8538 72.9613 33.7744C73.358 34.5149 74.0192 35.4406 75.1252 35.4935H89.6155C91.0172 35.4935 92.9478 33.748 92.9478 33.748L92.2265 35.4935H95.6116L96.8018 32.6901C97.6216 35.1496 99.5786 35.4935 99.8167 35.4935H114.682C116.824 35.5199 118.252 33.748 118.252 33.748C119.046 35.229 119.918 35.7315 120.871 35.8373C123.301 36.1017 124.914 34.2769 124.914 34.2769C124.99 34.6018 125.166 34.8946 125.417 35.1132C125.669 35.3318 125.984 35.4649 126.316 35.4935H136.921C138.251 35.3752 139.492 34.7769 140.412 33.8105C140.915 35.3973 142.095 35.7675 142.925 35.8733C145.225 36.032 146.416 33.784 146.416 33.784C147.209 35.3179 148.531 35.5295 148.849 35.5295H163.034C163.606 35.4811 164.158 35.2977 164.645 34.9942C165.133 34.6908 165.541 34.276 165.837 33.784C166.287 35.2266 167.133 35.5295 167.556 35.5295H176.336L178.002 31.6154H170.549L170.569 31.5794ZM33.717 12.8047C33.717 12.8047 34.9071 17.3271 29.8702 22.6933L33.717 12.8047ZM57.1992 30.6802C56.6967 31.8174 55.4801 32.3992 54.581 32.0025C53.6818 31.6058 53.3788 30.3893 53.8934 29.2521C54.4079 28.1149 55.533 27.5691 56.4587 27.9562C57.3843 28.3433 57.7017 29.5694 57.1992 30.6802ZM126.564 18.4354C126.564 18.4354 126.405 23.3713 123.152 26.1843L126.564 18.4354ZM124.16 31.2091C123.895 32.1347 123.022 32.6901 122.236 32.4785C121.45 32.267 120.996 31.3149 121.26 30.3893C121.525 29.4636 122.395 28.9083 123.183 29.1198C123.972 29.3314 124.422 30.2835 124.157 31.2091H124.16Z" fill="white"/>
</g>
<defs>
<clipPath id="clip0_5158_9942">
<rect width="178" height="41.2278" fill="white" transform="translate(0 0.771484)"/>
</clipPath>
</defs>
</svg>
