<svg width="208" height="48" viewBox="0 0 208 48" fill="none" xmlns="http://www.w3.org/2000/svg">
<path d="M202.159 47.9999H8.92969L10.7463 43.4121H204.006L202.159 47.9999Z" fill="#EE2A24"/>
<path d="M198.586 35.8684C197.694 35.8684 198.001 34.8523 198.001 34.8523L200.927 27.9916H192.367L190.796 31.6557H195.169L193.352 35.874H174.48C173.526 35.9048 173.741 35.1351 173.741 35.1351L176.347 27.9916H172.294L169.43 35.7201C169.337 35.9313 169.17 36.1012 168.96 36.1976C168.75 36.294 168.512 36.3104 168.291 36.2435C167.552 36.0224 167.95 34.9895 167.95 34.9895L170.29 27.9916H166.228L163.58 35.874H147.107C148.154 32.1484 145.167 30.6704 145.167 30.6704C155.297 20.8425 146.984 13.1561 146.984 13.1561L137.318 35.8768H118.813C117.089 35.8768 117.643 34.9839 117.973 34.7068C119.421 33.3828 125.394 27.9888 125.394 27.9888H120.199L114.78 32.5766L121.246 17.3996H116.207L109.237 35.8293H88.9181C88.7553 35.8317 88.596 35.7823 88.4631 35.6882C88.3303 35.5941 88.2308 35.4602 88.1792 35.3058C88.0602 34.9389 88.0153 34.552 88.047 34.1676C88.0787 33.7832 88.1864 33.4089 88.3639 33.0665C89.0105 31.7425 90.3653 31.1071 91.443 31.6193C91.744 31.7771 91.9989 32.0106 92.1824 32.2967C92.366 32.5828 92.4719 32.9118 92.4899 33.2512H95.8489C95.8796 31.0119 94.8943 28.9713 93.0777 28.0784C90.3373 26.7544 86.7964 28.4171 85.1645 31.8349C84.5496 33.0753 84.2734 34.4562 84.3639 35.8376H70.105C71.275 32.543 70.2589 29.1868 67.6109 28.0168C64.8118 26.816 61.268 28.5766 59.7733 32.0196C59.2335 33.2149 58.9768 34.5186 59.0231 35.8293H45.4752C43.1043 35.6753 43.874 33.31 43.874 33.31L52.3723 13.5171H46.1218L39.8712 29.0021C37.8698 33.0973 36.0532 34.2057 35.6725 34.3597C32.5934 35.5913 33.1784 31.8404 33.1784 31.8404C49.2932 15.6417 38.7012 0 38.7012 0L27.5241 30.9727C11.7313 37.8083 4.15675 28.7334 4.15675 28.7334L0 37.0693C14.133 45.4136 26.7852 36.3303 26.7852 36.3303C27.8013 39.3786 29.1868 40.7026 30.6648 41.0413C35.0063 41.8418 38.0854 37.2232 38.0854 37.2232C39.0399 40.1484 41.5032 40.4255 41.8419 40.4255H54.8048C58.0686 40.4255 59.5158 38.3933 59.5773 38.3933C60.0344 39.3276 60.8081 40.0695 61.7607 40.4871C63.9468 41.4416 66.6872 40.5178 68.5039 38.4241C69.1813 40.3331 70.8439 40.4255 70.8439 40.4255H81.1281C83.0371 40.4255 84.8538 38.5164 84.9461 38.4241C85.408 39.2862 86.1778 40.3639 87.4654 40.4255H104.336C105.968 40.4255 108.216 38.3933 108.216 38.3933L107.376 40.4255H111.317L112.703 37.1616C113.657 40.0252 115.936 40.4255 116.213 40.4255H133.52C136.014 40.4563 137.677 38.3933 137.677 38.3933C138.6 40.1176 139.617 40.7026 140.725 40.8258C143.555 41.1337 145.433 39.0091 145.433 39.0091C145.521 39.3874 145.726 39.7283 146.019 39.9827C146.312 40.2372 146.678 40.3922 147.065 40.4255H159.412C160.96 40.2877 162.405 39.5912 163.477 38.4661C164.062 40.3135 165.436 40.7446 166.402 40.8677C169.08 41.0525 170.466 38.4353 170.466 38.4353C171.39 40.2211 172.929 40.4675 173.299 40.4675H189.814C190.48 40.4111 191.123 40.1975 191.69 39.8442C192.258 39.491 192.733 39.0081 193.078 38.4353C193.601 40.1148 194.586 40.4675 195.079 40.4675H205.302L207.241 35.9104H198.564L198.586 35.8684ZM39.2554 14.0098C39.2554 14.0098 40.641 19.275 34.7768 25.5227L39.2554 14.0098ZM66.5948 34.8216C66.0098 36.1456 64.5934 36.823 63.5465 36.3611C62.4997 35.8992 62.147 34.4829 62.746 33.1589C63.345 31.8348 64.655 31.1994 65.7327 31.6501C66.8104 32.1008 67.1799 33.5283 66.5948 34.8216ZM147.353 20.5654C147.353 20.5654 147.169 26.3121 143.381 29.5871L147.353 20.5654ZM144.554 35.4374C144.246 36.515 143.23 37.1617 142.315 36.9153C141.4 36.669 140.871 35.5605 141.178 34.4829C141.486 33.4052 142.5 32.7586 143.418 33.0049C144.336 33.2512 144.859 34.3597 144.551 35.4374H144.554Z" fill="#EE2A24"/>
</svg>
